<?xml version="1.0" encoding="utf-8"?>
<!-- Generator: Adobe Illustrator 24.1.1, SVG Export Plug-In . SVG Version: 6.00 Build 0)  -->
<svg version="1.1" id="Ebene_1" xmlns="http://www.w3.org/2000/svg" xmlns:xlink="http://www.w3.org/1999/xlink" x="0px" y="0px"
	 viewBox="0 0 250 250" style="enable-background:new 0 0 250 250;" xml:space="preserve">
<style type="text/css">
	.st0{fill:#F7F7F7;}
</style>
<g>
	<path class="st0" d="M239.16,217.08l-75.53-75.53c9.94-14.11,15.81-31.29,15.81-49.82c0-47.8-38.89-86.69-86.69-86.69
		S6.05,43.92,6.05,91.72s38.89,86.69,86.69,86.69c17.48,0,33.76-5.22,47.39-14.15l75.92,75.92c6.38,6.38,16.73,6.38,23.11,0v0
		C245.54,233.8,245.54,223.46,239.16,217.08z M38.73,91.72c0-29.78,24.23-54.01,54.01-54.01s54.01,24.23,54.01,54.01
		s-24.23,54.01-54.01,54.01S38.73,121.51,38.73,91.72z"/>
</g>
</svg>
