<?xml version="1.0" encoding="utf-8"?>
<!-- Generator: Adobe Illustrator 24.1.1, SVG Export Plug-In . SVG Version: 6.00 Build 0)  -->
<svg version="1.1" id="Ebene_1" xmlns="http://www.w3.org/2000/svg" xmlns:xlink="http://www.w3.org/1999/xlink" x="0px" y="0px"
	 viewBox="0 0 250 250" style="enable-background:new 0 0 250 250;" xml:space="preserve">
<style type="text/css">
	.st0{fill:#383838;}
</style>
<path class="st0" d="M244.43,136.88c0.38-3.91,0.58-7.87,0.58-11.88s-0.2-7.97-0.58-11.88l-32.32-11.49
	c-2.06-7.68-5.1-14.97-8.99-21.7l14.72-30.98c-5.03-6.14-10.66-11.77-16.8-16.8l-30.98,14.72c-6.73-3.89-14.01-6.93-21.7-8.99
	L136.88,5.57c-3.91-0.38-7.87-0.58-11.88-0.58s-7.97,0.2-11.88,0.58l-11.49,32.32c-7.68,2.06-14.97,5.1-21.7,8.99L48.96,32.16
	c-6.14,5.03-11.77,10.66-16.8,16.8l14.72,30.98c-3.89,6.73-6.93,14.01-8.99,21.7L5.57,113.12c-0.38,3.91-0.58,7.87-0.58,11.88
	s0.2,7.97,0.58,11.88l32.32,11.49c2.06,7.68,5.1,14.97,8.99,21.7l-14.72,30.98c5.03,6.14,10.66,11.77,16.8,16.8l30.98-14.72
	c6.73,3.89,14.01,6.93,21.7,8.99l11.49,32.32c3.91,0.38,7.87,0.58,11.88,0.58s7.97-0.2,11.88-0.58l11.49-32.32
	c7.68-2.06,14.97-5.1,21.7-8.99l30.98,14.72c6.14-5.03,11.77-10.66,16.8-16.8l-14.72-30.98c3.89-6.73,6.93-14.01,8.99-21.7
	L244.43,136.88z M125,176.72c-28.56,0-51.72-23.15-51.72-51.72S96.44,73.28,125,73.28c28.56,0,51.72,23.15,51.72,51.72
	S153.56,176.72,125,176.72z"/>
</svg>
